<svg width="32" height="32" viewBox="0 0 32 32" fill="none" xmlns="http://www.w3.org/2000/svg">
<circle cx="16" cy="16" r="16" fill="white"/>
<path d="M19.4492 16.2852V12.9219C19.4492 12.4609 19.3594 12.0273 19.1797 11.6211C19.0078 11.207 18.7695 10.8477 18.4648 10.543C18.1602 10.2383 17.8008 10 17.3867 9.82812C16.9805 9.64844 16.5469 9.55859 16.0859 9.55859C15.625 9.55859 15.1875 9.64844 14.7734 9.82812C14.3672 10 14.0117 10.2383 13.707 10.543C13.4023 10.8477 13.1602 11.207 12.9805 11.6211C12.8086 12.0273 12.7227 12.4609 12.7227 12.9219V16.2852H19.4492ZM22.8125 23H19.4492V19.6367H12.7227V23H9.37109V12.9219C9.37109 11.9922 9.54688 11.1211 9.89844 10.3086C10.25 9.48828 10.7266 8.77344 11.3281 8.16406C11.9375 7.55469 12.6484 7.07422 13.4609 6.72266C14.2812 6.37109 15.1562 6.19531 16.0859 6.19531C17.0156 6.19531 17.8867 6.37109 18.6992 6.72266C19.5195 7.07422 20.2344 7.55469 20.8438 8.16406C21.4531 8.77344 21.9336 9.48828 22.2852 10.3086C22.6367 11.1211 22.8125 11.9922 22.8125 12.9219V23ZM29.3281 21.8047C29.3281 22.0859 29.2773 22.3516 29.1758 22.6016C29.0742 22.8438 28.9336 23.0547 28.7539 23.2344C28.5742 23.4141 28.3633 23.5547 28.1211 23.6562C27.8789 23.7656 27.6172 23.8203 27.3359 23.8203C27.0625 23.8203 26.8008 23.7656 26.5508 23.6562C26.3086 23.5547 26.0938 23.4141 25.9062 23.2344C25.7266 23.0547 25.582 22.8438 25.4727 22.6016C25.3711 22.3516 25.3203 22.0859 25.3203 21.8047C25.3203 21.5312 25.3711 21.2734 25.4727 21.0312C25.582 20.7891 25.7266 20.5781 25.9062 20.3984C26.0938 20.2188 26.3086 20.0781 26.5508 19.9766C26.8008 19.8672 27.0625 19.8125 27.3359 19.8125C27.6172 19.8125 27.8789 19.8672 28.1211 19.9766C28.3633 20.0781 28.5742 20.2188 28.7539 20.3984C28.9336 20.5781 29.0742 20.7891 29.1758 21.0312C29.2773 21.2734 29.3281 21.5312 29.3281 21.8047Z" fill="#395AD4"/>
</svg>
